<svg xmlns="http://www.w3.org/2000/svg" viewBox="0 0 1280 720"  height="720" width="1280" class="customSVGdemoName"  shape-rendering="geometricPrecision" font-family="monospace" >
              <path d="M 0 0 l 1280  0 0 720 -1280 0 -1280 -720 " stroke="none" stroke-width="3" fill="#000" ></path>
            <path d="M 30 10 l 120 0 20 20 940 0 20 -20 120 0 20 20 0 120 -20 20 0 380 20 20 0 120 -20 20 -120 0 -20 -20 -940 0 -20 20 -120 0 -20 -20 0 -120 20 -20 0 -380 -20 -20 0 -120 20 -20" stroke="#a0c0ff50" stroke-width="3" fill="#55555550" ></path>
                <path d="M 170 2.5 l 940  0 5 5 0 10 -5 5 -940  0 -5 -5 0 -10 5 -5" stroke="#a0c0ff80" stroke-width="1" fill="#a0c0ff50" ></path>
              <text x="180" y="15" fill="#a0c0ff"  text-rendering="geometricPrecision" font-size="11">CPU: 16.93% [Count: 16]</text>
              <text x="640" y="15" fill="#a0c0ff"  text-rendering="geometricPrecision" font-size="11">RAM: 8.49GB ([object Promise]%) [Total: 16GB]</text>
                <path d="M 170 697.5 l 940  0 5 5 0 10 -5 5 -940  0 -5 -5 0 -10 5 -5" stroke="#a0c0ff80" stroke-width="1" fill="#a0c0ff50" ></path>
            <text x="180" y="710" fill="#a0c0ff"  text-rendering="geometricPrecision" font-size="11">👤 v__V_ [ Windows 10 Enterprise | win32x64 ]</text>
            <text x="640" y="710" fill="#a0c0ff"  text-rendering="geometricPrecision" font-size="11">🌐 0.0.0.0 [ D: 0 Mbs / U:0 Mbs @ 0ms]</text>
                <path d="M 1115  680  l  20 -20 110 0 20 20 -10 0 -15 -15 -100 0 -15 15 -10 0" stroke="#444" stroke-width="2" fill="#40404050" ></path>
            <text x="1140" y="682.5" fill="#a0c0ff"  text-rendering="geometricPrecision" font-size="20">11:28:00</text>
            <text x="1137.5" y="695" fill="#404040"  text-rendering="geometricPrecision" font-size="11">Sat Apr 30 2022</text>
            <path d="M 1115  685  l  20 20 110 0 20 -20 -10 0 -15 15 -100 0 -15 -15 -10 0" stroke="#444" stroke-width="2"  fill="#40404050" ></path>
                
                <text x="1125" y="25" fill="#ffffff"  text-rendering="geometricPrecision" font-size="11"><text fill="#a0c0ff">0</text>ms | 0</text>
                
            </svg>